<mxfile host="app.diagrams.net" agent="Mozilla/5.0 (Macintosh; Intel Mac OS X 10_15_7) AppleWebKit/537.36 (KHTML, like Gecko) Chrome/129.0.0.0 Safari/537.36" version="24.7.17">
  <diagram name="第 1 页" id="oHxSHkeGL2LUXtYBYDLl">
    <mxGraphModel dx="2074" dy="1121" grid="1" gridSize="10" guides="1" tooltips="1" connect="1" arrows="1" fold="1" page="1" pageScale="1" pageWidth="3300" pageHeight="4681" math="0" shadow="0">
      <root>
        <mxCell id="0" />
        <mxCell id="1" parent="0" />
        <mxCell id="UDnZiU7M7WVfapNRVKti-1" value="url_nginx" style="rounded=1;whiteSpace=wrap;html=1;labelBackgroundColor=none;fillColor=#FAE5C7;strokeColor=#0F8B8D;fontColor=#143642;fontSize=15;" vertex="1" parent="1">
          <mxGeometry x="795" y="650" width="220" height="110" as="geometry" />
        </mxCell>
        <mxCell id="UDnZiU7M7WVfapNRVKti-2" value="shmMgr" style="rounded=1;whiteSpace=wrap;html=1;labelBackgroundColor=none;fillColor=#FAE5C7;strokeColor=#0F8B8D;fontColor=#143642;fontSize=15;" vertex="1" parent="1">
          <mxGeometry x="810" y="350" width="190" height="80" as="geometry" />
        </mxCell>
        <mxCell id="UDnZiU7M7WVfapNRVKti-12" value="共享内存" style="rounded=0;whiteSpace=wrap;html=1;labelBackgroundColor=none;fillColor=#FAE5C7;strokeColor=#0F8B8D;fontColor=#143642;fontSize=15;" vertex="1" parent="1">
          <mxGeometry x="830" y="480.01" width="150" height="85" as="geometry" />
        </mxCell>
        <mxCell id="UDnZiU7M7WVfapNRVKti-13" value="MySQL" style="shape=cylinder3;whiteSpace=wrap;html=1;boundedLbl=1;backgroundOutline=1;size=15;labelBackgroundColor=none;fillColor=#FAE5C7;strokeColor=#0F8B8D;fontColor=#143642;fontSize=15;" vertex="1" parent="1">
          <mxGeometry x="875" y="200" width="60" height="80" as="geometry" />
        </mxCell>
        <mxCell id="UDnZiU7M7WVfapNRVKti-18" value="statMgr_client&lt;div style=&quot;font-size: 15px;&quot;&gt;（和 shmMgr 配套部署）&lt;/div&gt;" style="rounded=1;whiteSpace=wrap;html=1;labelBackgroundColor=none;fillColor=#FAE5C7;strokeColor=#0F8B8D;fontColor=#143642;fontSize=15;" vertex="1" parent="1">
          <mxGeometry x="1050" y="484.38" width="140" height="76.25" as="geometry" />
        </mxCell>
        <mxCell id="UDnZiU7M7WVfapNRVKti-19" value="" style="endArrow=classic;html=1;rounded=0;exitX=0.5;exitY=1;exitDx=0;exitDy=0;exitPerimeter=0;entryX=0.5;entryY=0;entryDx=0;entryDy=0;labelBackgroundColor=none;strokeColor=#A8201A;fontColor=default;fontSize=15;" edge="1" parent="1" source="UDnZiU7M7WVfapNRVKti-13" target="UDnZiU7M7WVfapNRVKti-2">
          <mxGeometry width="50" height="50" relative="1" as="geometry">
            <mxPoint x="1020" y="650" as="sourcePoint" />
            <mxPoint x="1070" y="600" as="targetPoint" />
          </mxGeometry>
        </mxCell>
        <mxCell id="UDnZiU7M7WVfapNRVKti-20" value="" style="endArrow=classic;html=1;rounded=0;exitX=0.5;exitY=1;exitDx=0;exitDy=0;entryX=0.5;entryY=0;entryDx=0;entryDy=0;labelBackgroundColor=none;strokeColor=#A8201A;fontColor=default;fontSize=15;" edge="1" parent="1" source="UDnZiU7M7WVfapNRVKti-2" target="UDnZiU7M7WVfapNRVKti-12">
          <mxGeometry width="50" height="50" relative="1" as="geometry">
            <mxPoint x="230" y="600" as="sourcePoint" />
            <mxPoint x="280" y="550" as="targetPoint" />
          </mxGeometry>
        </mxCell>
        <mxCell id="UDnZiU7M7WVfapNRVKti-21" value="" style="endArrow=classic;html=1;rounded=0;exitX=1;exitY=0.5;exitDx=0;exitDy=0;entryX=0;entryY=0.5;entryDx=0;entryDy=0;labelBackgroundColor=none;strokeColor=#A8201A;fontColor=default;fontSize=15;" edge="1" parent="1" source="UDnZiU7M7WVfapNRVKti-12" target="UDnZiU7M7WVfapNRVKti-18">
          <mxGeometry width="50" height="50" relative="1" as="geometry">
            <mxPoint x="1040" y="550" as="sourcePoint" />
            <mxPoint x="1090" y="500" as="targetPoint" />
          </mxGeometry>
        </mxCell>
        <mxCell id="UDnZiU7M7WVfapNRVKti-27" style="edgeStyle=orthogonalEdgeStyle;rounded=0;orthogonalLoop=1;jettySize=auto;html=1;exitX=0.5;exitY=0;exitDx=0;exitDy=0;exitPerimeter=0;entryX=0.5;entryY=1;entryDx=0;entryDy=0;labelBackgroundColor=none;strokeColor=#A8201A;fontColor=default;fontSize=15;" edge="1" parent="1" source="UDnZiU7M7WVfapNRVKti-23" target="UDnZiU7M7WVfapNRVKti-26">
          <mxGeometry relative="1" as="geometry" />
        </mxCell>
        <mxCell id="UDnZiU7M7WVfapNRVKti-28" value="每天 23:59 拉取一次" style="edgeLabel;html=1;align=center;verticalAlign=middle;resizable=0;points=[];labelBackgroundColor=none;fontColor=#143642;fontSize=15;" vertex="1" connectable="0" parent="UDnZiU7M7WVfapNRVKti-27">
          <mxGeometry x="-0.05" y="-3" relative="1" as="geometry">
            <mxPoint x="67" y="-1" as="offset" />
          </mxGeometry>
        </mxCell>
        <mxCell id="UDnZiU7M7WVfapNRVKti-23" value="redis" style="shape=cylinder3;whiteSpace=wrap;html=1;boundedLbl=1;backgroundOutline=1;size=15;labelBackgroundColor=none;fillColor=#FAE5C7;strokeColor=#0F8B8D;fontColor=#143642;fontSize=15;" vertex="1" parent="1">
          <mxGeometry x="1083.75" y="340" width="72.5" height="70" as="geometry" />
        </mxCell>
        <mxCell id="UDnZiU7M7WVfapNRVKti-24" style="edgeStyle=orthogonalEdgeStyle;rounded=0;orthogonalLoop=1;jettySize=auto;html=1;exitX=0.5;exitY=0;exitDx=0;exitDy=0;entryX=0.5;entryY=1;entryDx=0;entryDy=0;entryPerimeter=0;labelBackgroundColor=none;strokeColor=#A8201A;fontColor=default;fontSize=15;" edge="1" parent="1" source="UDnZiU7M7WVfapNRVKti-18" target="UDnZiU7M7WVfapNRVKti-23">
          <mxGeometry relative="1" as="geometry" />
        </mxCell>
        <mxCell id="UDnZiU7M7WVfapNRVKti-25" value="每十分钟写一次" style="edgeLabel;html=1;align=center;verticalAlign=middle;resizable=0;points=[];labelBackgroundColor=none;fontColor=#143642;fontSize=15;" vertex="1" connectable="0" parent="UDnZiU7M7WVfapNRVKti-24">
          <mxGeometry x="-0.0034" y="-3" relative="1" as="geometry">
            <mxPoint x="57" as="offset" />
          </mxGeometry>
        </mxCell>
        <mxCell id="UDnZiU7M7WVfapNRVKti-26" value="statMgr_server&lt;div style=&quot;font-size: 15px;&quot;&gt;（只部署一个实例）&lt;/div&gt;" style="rounded=1;whiteSpace=wrap;html=1;labelBackgroundColor=none;fillColor=#FAE5C7;strokeColor=#0F8B8D;fontColor=#143642;fontSize=15;" vertex="1" parent="1">
          <mxGeometry x="1055" y="213" width="130" height="77.5" as="geometry" />
        </mxCell>
        <mxCell id="UDnZiU7M7WVfapNRVKti-30" value="" style="endArrow=classic;html=1;rounded=0;exitX=0;exitY=0.5;exitDx=0;exitDy=0;entryX=1;entryY=0;entryDx=0;entryDy=52.5;entryPerimeter=0;labelBackgroundColor=none;strokeColor=#A8201A;fontColor=default;fontSize=15;" edge="1" parent="1" source="UDnZiU7M7WVfapNRVKti-26" target="UDnZiU7M7WVfapNRVKti-13">
          <mxGeometry width="50" height="50" relative="1" as="geometry">
            <mxPoint x="1150" y="170" as="sourcePoint" />
            <mxPoint x="935" y="210" as="targetPoint" />
          </mxGeometry>
        </mxCell>
        <mxCell id="UDnZiU7M7WVfapNRVKti-31" value="" style="shape=flexArrow;endArrow=classic;startArrow=classic;html=1;rounded=0;entryX=0.5;entryY=1;entryDx=0;entryDy=0;labelBackgroundColor=none;strokeColor=#A8201A;fontColor=default;fontSize=15;" edge="1" parent="1" source="UDnZiU7M7WVfapNRVKti-1" target="UDnZiU7M7WVfapNRVKti-12">
          <mxGeometry width="100" height="100" relative="1" as="geometry">
            <mxPoint x="750" y="870" as="sourcePoint" />
            <mxPoint x="850" y="770" as="targetPoint" />
          </mxGeometry>
        </mxCell>
        <mxCell id="UDnZiU7M7WVfapNRVKti-32" value="读写" style="text;html=1;align=center;verticalAlign=middle;resizable=0;points=[];autosize=1;strokeColor=none;fillColor=none;labelBackgroundColor=none;fontColor=#143642;fontSize=15;" vertex="1" parent="1">
          <mxGeometry x="910" y="598" width="50" height="30" as="geometry" />
        </mxCell>
      </root>
    </mxGraphModel>
  </diagram>
</mxfile>
